<svg xmlns="http://www.w3.org/2000/svg" viewBox="0 0 512 512" fill="none">
  <!-- Shield shape -->
  <path d="M256 40 L440 120 L440 280 Q440 420 256 480 Q72 420 72 280 L72 120 Z"
        fill="#0f172a" stroke="#3b82f6" stroke-width="6"/>
  <path d="M256 60 L420 132 L420 278 Q420 400 256 456 Q92 400 92 278 L92 132 Z"
        fill="url(#sg1)"/>

  <!-- Inner K with slash -->
  <path d="M180 160 L180 380" stroke="#f8fafc" stroke-width="30" stroke-linecap="round"/>
  <path d="M195 270 L320 150" stroke="#f8fafc" stroke-width="26" stroke-linecap="round"/>
  <path d="M220 275 L340 395" stroke="#3b82f6" stroke-width="26" stroke-linecap="round"/>

  <!-- Accent star -->
  <path d="M340 130 L346 148 L364 148 L350 158 L356 176 L340 166 L324 176 L330 158 L316 148 L334 148 Z"
        fill="#f59e0b"/>

  <defs>
    <linearGradient id="sg1" x1="50%" y1="0%" x2="50%" y2="100%">
      <stop offset="0%" style="stop-color:#1e293b"/>
      <stop offset="100%" style="stop-color:#0f172a"/>
    </linearGradient>
  </defs>
</svg>
